# xmcd
#
# Track frame offsets:
# 150
# 9795
# 22603
# 35984
# 49810
# 62412
# 75387
# 87509
# 101674
# 114512
# 125784
# 135912
# 151813
# 166783
# 179622
# 194493
# 208655
# 221673
# 232697
# 245011
#
# Disc length: 3482 seconds
#
#
# Revision: 0
# Processed by: cddbd v1.5.1PL2 Copyright (c) Steve Scherf et al.
# Submitted via: FreeRIP 2.945 
#
DISCID=020d9814
DTITLE=Various Artist - Rhythm and Blues Vol. 1
DYEAR=1900
DGENRE=Blues
TTITLE0=Bourbon Street Blues - Louis Prima and His Orchestra
TTITLE1=You Gotta See Baby Tonight - Louis Prima and His Orchestra
TTITLE2=Alone In This City - Ray Charles
TTITLE3=How Long Blues - Ray Charles
TTITLE4=Choo Choo Ch'Boogie - Louis Jordan and His Tympany 5
TTITLE5=Five Guys Named Moe - Louis Jordan and His Tympany 5
TTITLE6=Rock Me All Night Long - Ella Mae Morse
TTITLE7=Have Mercy Baby - Ella Mae Morse
TTITLE8=Fee Fie Foo - Louis Prima and His Orchestra
TTITLE9=Buona Sera - Louis Prima and His Orchestra
TTITLE10=I Wonder Who's Kissing Her Now - Ray Charles Trio
TTITLE11=The Sun's Gonna Shine Again - Ray Charles Trio
TTITLE12=Let The Good Times Roll - Louis Jordan and His Tympany 5
TTITLE13=There Ain't Nobody Here But Us Chickens - Louis Jordan and His Tympany 5
TTITLE14=Money Honey - Ella Mae Morse
TTITLE15=Daddy Daddy - Ella Mae Morse
TTITLE16=Here Am I, Let's Have A Ball - Ray Charles
TTITLE17=Caldonia - Louis Jordan and His Tympany 5
TTITLE18=Forty Cups Of Coffee - Ella Mae Morse
TTITLE19=If You Were The Only Girl In The World - Louis Prima and His Orchestra
EXTD=
EXTT0=
EXTT1=
EXTT2=
EXTT3=
EXTT4=
EXTT5=
EXTT6=
EXTT7=
EXTT8=
EXTT9=
EXTT10=
EXTT11=
EXTT12=
EXTT13=
EXTT14=
EXTT15=
EXTT16=
EXTT17=
EXTT18=
EXTT19=
PLAYORDER=
